<svg xmlns="http://www.w3.org/2000/svg" viewBox="0 0 1198.65 396.6"><g id="a8a2f0ab-ecee-40fa-89e0-2ea0928e3088" data-name="Layer 2"><g id="bae72951-ab40-4ad3-8ddc-a6086ce96e89" data-name="Layer 1"><path d="M6.1,297.5V318H.2V261.1h21a17.57,17.57,0,0,1,8.4,1.7,9.05,9.05,0,0,1,4.2,5.7A41,41,0,0,1,35,279.7c0,6.5-.9,11.1-2.8,13.8s-5.1,4.1-9.7,4.1H6.1Zm0-5.1H21.7a14,14,0,0,0,5.6-.8,3,3,0,0,0,1.5-3V269.8a3,3,0,0,0-1.5-3,14,14,0,0,0-5.6-.8H6.1Z" fill="#fff"/><path d="M85.2,296.6V318H79.3V261.1h21.5a17.57,17.57,0,0,1,8.4,1.7,9.05,9.05,0,0,1,4.2,5.7,41,41,0,0,1,1.2,11.2c0,6.2-.9,10.6-2.8,13.1s-5.1,3.8-9.7,3.8Zm0-5.1h16a14,14,0,0,0,5.6-.8,3,3,0,0,0,1.5-3V269.8a3,3,0,0,0-1.5-3,14,14,0,0,0-5.6-.8h-16v25.5Zm21.3,3.9,11.1,22.7h-6.5L99.9,294.3Z" fill="#fff"/><path d="M169.4,292.1v21h26.3V318H163.5V261.1h31.7l-.6,4.9H169.5v21h22.8v5H169.4Z" fill="#fff"/><path d="M241.6,318l3.9-56.9h9l14.6,47.4h.6l14.7-47.4h8.9l3.9,56.9h-5.8L288,267h-.5L272,318h-5.1l-15.5-51h-.5l-3.5,51Z" fill="#fff"/><path d="M347.6,261.1h5.9V318h-5.9Z" fill="#fff"/><path d="M425,319.4a59.85,59.85,0,0,1-10.4-.7,12.26,12.26,0,0,1-6.2-2.6,10.84,10.84,0,0,1-3.1-5.2,33.8,33.8,0,0,1-.9-8.6V261.1h5.9v53.3h15.1a66.33,66.33,0,0,0,8.8-.4,7.61,7.61,0,0,0,4.2-1.4,3.81,3.81,0,0,0,1.1-3.1V261h5.9v41.3a39.87,39.87,0,0,1-.8,8.6,9.49,9.49,0,0,1-3.1,5.2,14.18,14.18,0,0,1-6.2,2.6A57.86,57.86,0,0,1,425,319.4Z" fill="#fff"/><path d="M494.9,318l3.9-56.9h9l14.6,47.4h.6l14.7-47.4h8.9l3.9,56.9h-5.8l-3.4-51h-.5l-15.5,51h-5.1l-15.5-51h-.5l-3.5,51Z" fill="#fff"/><path d="M650.4,318,668,261.1h8.7L694.4,318h-5.9l-15.8-51.7h-.8L656.3,318Zm7.5-14v-5.1h29V304Z" fill="#fff"/><path d="M738.2,261.1h5.9V318h-5.9Z" fill="#fff"/><path d="M60,134.5a38.53,38.53,0,0,0-16.4-10.9c-6.5-2.3-14.2-3.5-23.3-3.5q-4.05,0-8.7.3t-10.5.9l2.7,19.9a67.67,67.67,0,0,1,7.3-.8c2.3-.1,4.4-.2,6.6-.2,8.1,0,14.8,1.2,20,3.7a25.1,25.1,0,0,1,11.4,10.7,105.16,105.16,0,0,0-19.4,3.6c-10.5,3.1-18,7.9-22.7,14.6s-7,15.5-7,26.6A86.73,86.73,0,0,0,1.5,217a24.76,24.76,0,0,0,5.1,11.2,19.8,19.8,0,0,0,9.8,5.9,56.37,56.37,0,0,0,15.5,1.8,159.85,159.85,0,0,0,18.8-1.1,87.63,87.63,0,0,0,15.7-3.4l-2.3-19.1a131.69,131.69,0,0,1-14.2,2.6,91.7,91.7,0,0,1-13,.8c-3.5,0-7-.1-10.3-.3a76.76,76.76,0,0,1-8.5-.9V191.4c0-4.7,2.1-8.5,6.3-11.5s10.8-5,19.8-6.3a250.4,250.4,0,0,1,34.7-2V153.5H70.5A55.85,55.85,0,0,0,60,134.5Z" fill="#fff"/><path d="M309.8,122.5c-4-1.4-9.5-2.1-16.6-2.1a66.8,66.8,0,0,0-20.5,3,45.71,45.71,0,0,0-16,8.7,36.2,36.2,0,0,0-10,13.2V90.7H228.8v81.9H115.4v-41H97.5v59.1a51.57,51.57,0,0,1-1.3,13,17.67,17.67,0,0,1-4.5,8.2,33.29,33.29,0,0,1-9.1,5.9l6.8,16a46.44,46.44,0,0,0,15.1-9.8,34.52,34.52,0,0,0,8.3-13.8,62.54,62.54,0,0,0,2.6-17.4H312.8a8.07,8.07,0,0,0,8.1-8.1V143.6c0-5.9-.8-10.6-2.5-13.9A14.78,14.78,0,0,0,309.8,122.5Zm-6.9,50H247c1-9.6,4-17.1,9.3-22.3q9.6-9.6,29.1-9.6c8.1,0,14,.6,17.5,1.7Z" fill="#fff"/><path d="M671.7,190.6a51.57,51.57,0,0,1-1.3,13,17.67,17.67,0,0,1-4.5,8.2,33.29,33.29,0,0,1-9.1,5.9l6.8,16a46.44,46.44,0,0,0,15.1-9.8,34.52,34.52,0,0,0,8.3-13.8c1.8-5.4,2.6-11.9,2.6-19.5V121.9H671.7v68.7Z" fill="#fff"/><rect x="715.2" y="121.9" width="18.1" height="70.8" fill="#fff"/><path d="M625.6,121.9v50.6H592.3V121.9H574.4v50.6H486.6V150.9c0-5.9-.7-10.6-2.1-13.9a12.75,12.75,0,0,0-7.2-7.2c-3.4-1.4-8-2.1-13.9-2.1H421.2v-9.2h63.5V100.4H418.5A14.55,14.55,0,0,0,403.9,115h0v17a15.7,15.7,0,0,0,4.6,11.7c2.8,2.8,6.8,4.1,12.1,4.1h48.1v24.6H385.4V90.5H367.3v91.7a10.39,10.39,0,0,0,10.4,10.4H637.5a6.06,6.06,0,0,0,6.1-6.1V121.7h-18Z" fill="#fff"/><path d="M693.5,117.8V107.2a15.42,15.42,0,0,1,5-11.7,16.8,16.8,0,0,1,11.8-4.7H755v17.8H711.4v9.2Z" fill="#fff"/><path d="M511,225.7v-7.4a15.42,15.42,0,0,1,5-11.7,16.8,16.8,0,0,1,11.8-4.7h44.6v17.8H528.8v6Z" fill="#fff"/><path d="M605,90.6v14.1a3.76,3.76,0,0,0,3.7,3.7h16.8V90.6Z" fill="#fff"/><path d="M1036.7,200.5a8.51,8.51,0,0,0,2.1-6c-.2-4.4-.3-8-.3-11.3l-.2-24.6c-.1-10.1-.3-20.3-.4-30.4,0-1.1.1-1.3,1.1-1.6a29.56,29.56,0,0,0,14.1-9c8.9-9.9,10.7-24.9,4.4-36.3a31.61,31.61,0,0,0-33.6-16.1c-14.1,2.6-24.5,14.2-25.9,28.9-1.2,13.6,7.4,27,20.6,32a9.36,9.36,0,0,0,1.6.4c1.1.2,1.7.3,2,.9a9.25,9.25,0,0,1,.3,3v1.3l.2,13.5c.1,12.3.3,32.2.5,44.7a6,6,0,0,1-1.6,4.4c-15.7,18.6-68.1,73.7-68.1,73.7V228.9c0-.5,0-.5.9-.8,15.3-4.6,24.5-18.4,22.8-34.2A31,31,0,0,0,965,172.6a31.54,31.54,0,0,0-24-6.2c-14.6,2.4-25.9,14.4-26.7,28.5-.9,15.8,8,28.8,22.8,33.1.9.3,1.1.5,1.1,1.5v55.7a2.65,2.65,0,0,1-.8,2.1c-15.2,18-30.3,36.1-45.5,54.1l-20.5,24.4V172.7a2.25,2.25,0,0,1,.8-1.7c6.7-7.4,90.7-99.9,100-110.2.6-.7.9-.8,1.7-.3a31,31,0,0,0,18.8,2.9c16.2-2.4,27.5-16.4,26.8-33.3-.7-15.6-14.1-28.9-29.8-29.5C977.2.1,967.3,5.3,961,15.7c-6.5,10.7-6.5,21.7-.1,32.9.6,1,.5,1.2-.1,2-7.7,8.4-91.7,101-101,111.1a13.11,13.11,0,0,0-3.8,9.7q.15,81.75.1,163.6v35.7c-2.2-2-7.6-6.5-14.3-11.9-10.4-8.6-23.4-19.2-28.3-24.2a5,5,0,0,1-1.6-4c.1-78,.1-178.1,0-255.7V63.1c-.1-.5-.1-.6.7-.8,15.9-4.7,25.2-19.2,22.8-35.3C833.5,14.4,826.1,5.7,814,1.8S790.6.5,781.7,9.6a31.5,31.5,0,0,0,13.9,52.6c.8.2.9.4.8,1.2V334.7c0,4.7,3,8.3,6.3,11.6,7.6,7.6,22.3,20,34.1,30,9.7,8.2,18,15.2,19.8,17.4a7.35,7.35,0,0,0,5.9,2.7h.6c3-.2,4.9-2,6.6-4l7.8-9.3c6.1-7.3,12.2-14.7,18.4-22C919.7,332.3,1015.1,226.1,1036.7,200.5ZM1013.5,95.9a16.14,16.14,0,0,1,4.8-11.4,16.58,16.58,0,0,1,11.4-4.8h.1a16.15,16.15,0,0,1,0,32.3h0A16.13,16.13,0,0,1,1013.5,95.9ZM987.8,15.7h.2a16.21,16.21,0,0,1,15.8,16.6A15.64,15.64,0,0,1,999,43.4a16.2,16.2,0,0,1-27.5-11.7A16.24,16.24,0,0,1,987.8,15.7ZM792.4,43.3a15.83,15.83,0,0,1-4.7-11.2h0a16.26,16.26,0,0,1,16.1-16.3h.1a15.83,15.83,0,0,1,11.2,4.7,15.94,15.94,0,0,1,.3,22.7A15.58,15.58,0,0,1,804.1,48,16.65,16.65,0,0,1,792.4,43.3ZM945.6,213.5a16.24,16.24,0,0,1-11.3-4.7,15.58,15.58,0,0,1-4.8-11.3,16.14,16.14,0,0,1,15.8-16.3h.2a16.22,16.22,0,0,1,16.3,15.9,15.94,15.94,0,0,1-4.6,11.4,16.4,16.4,0,0,1-11.5,5Z" fill="#e2a725"/><path d="M1198.3,27.2a30.66,30.66,0,0,0-11.4-20,32,32,0,0,0-36.1-2.6,31.78,31.78,0,0,0-15.1,31.8c2.1,12.9,9.6,21.5,22.1,25.6,1.4.4,1.5.8,1.5,2.2V190.4a3.09,3.09,0,0,1-.8,2.3c-3.9,4.7-7.8,9.6-11.6,14.3l-1.7,2.1c-2.3,2.9-4.7,5.8-7,8.7-2.7,3.3-5.3,6.6-8,9.9-2.2,2.8-4.5,5.6-6.8,8.3s-4.4,5.5-6.7,8.2c-2.3,2.9-4.6,5.7-6.9,8.6-2.2,2.7-4.4,5.5-6.6,8.2-2.5,3.1-5,6.2-7.5,9.2s-5.1,6.2-7.6,9.4-5,6.2-7.4,9.3-5,6.2-7.4,9.3c-2.3,2.9-4.7,5.8-7,8.7-2.7,3.3-5.4,6.6-8,9.9s-5.3,6.6-7.9,9.9l-9.8,12.2c-3.6,4.5-7.3,9-11,13.5l-9.1,11.2-1.6,2c-4,4.9-8.1,10-12.1,15.1a12.67,12.67,0,0,1-1.1,1.3c-1.6,1.9-3.5,4-3.2,7.3q.45,5.4,5.1,6.9a10,10,0,0,0,2.4.4,8.35,8.35,0,0,0,6.3-2.9c2.7-3.5,5.5-6.9,8.3-10.3l.5-.6c2.1-2.6,4.2-5.2,6.4-7.8l8.7-10.8c2.5-3.1,5-6.2,7.4-9.3s4.9-6.2,7.4-9.3c2.4-2.9,4.7-5.8,7.1-8.7,2.2-2.6,4.3-5.3,6.5-7.9,2.5-3,4.9-6.1,7.3-9.1l6.3-7.8,7.4-9.2,7.5-9.3c2.2-2.7,4.3-5.4,6.5-8,2.3-2.9,4.6-5.7,6.9-8.6,2.5-3.1,5.1-6.2,7.6-9.4s5-6.2,7.5-9.2c2.3-2.8,4.5-5.6,6.7-8.4s4.5-5.6,6.7-8.4c2.4-2.9,4.7-5.8,7.1-8.7l7.9-9.7c1.8-2.3,3.7-4.6,5.5-6.9,3.6-4.5,7.3-9.2,11.1-13.7a16.64,16.64,0,0,0,4.4-11.5c-.1-26.7-.1-53.9-.1-80.2V63.6c0-1,.1-1.2,1-1.5a27.08,27.08,0,0,0,12.5-6.9C1196.4,47.5,1199.8,38,1198.3,27.2Zm-31.1,20.7h-.2a15.92,15.92,0,0,1-16.2-16.1,15.57,15.57,0,0,1,4.8-11.4,16.47,16.47,0,0,1,11.4-4.7h.4a16.43,16.43,0,0,1,15.8,16.4C1182.7,41.1,1176,47.8,1167.2,47.9Z" fill="#fff"/><path d="M1034.6,315.3h0a30.24,30.24,0,0,0-5-20.4c.7-.8,1.4-1.7,2.1-2.5l5.1-6c3.1-3.6,6.1-7.2,9.2-10.8,2.5-3,2.7-3.2,2.9-3.5s.4-.5,3-3.5c2.1-2.5,4.1-4.9,6.2-7.3,2.3-2.7,4.6-5.4,6.8-8.1s4.6-5.5,6.8-8.2c2.5-3.1,5.1-6.1,7.6-9.2s2.8-3.3,3.1-3.5.6-.6,3.2-3.7l.2-.3c7-8.3,14.2-16.8,21.2-25.3.3-.4.7-.8,1-1.2,1.4-1.6,2.9-3.2,3.3-5.7.2-1.3-.2-27.9-.2-31.8a30,30,0,0,0,7.3-3.2c9.1-5.5,14.3-13.7,15.3-24.2a29.89,29.89,0,0,0-7.1-23.2c-7.6-9-17.4-12.8-29-11.2-9.6,1.3-17.3,6.6-22.5,15.1a30.1,30.1,0,0,0-3.5,23.9,32.1,32.1,0,0,0,13.4,18.7,1.7,1.7,0,0,1,.6.6l.1.2.2.1a31.53,31.53,0,0,0,9.5,3.8c0,.7.1,1.4.1,2,.2,3.2.3,11.7.2,14.5v9.3a2.88,2.88,0,0,1-1,2.5c-1.3,1.4-2.5,2.8-3.7,4.3l-4.5,5.5c-.7.9-.8,1-4.2,5-2.4,2.9-4.8,5.7-7.2,8.5-2.6,3.1-5.2,6.1-7.8,9.2-3.3,3.9-6.5,7.8-9.7,11.7-3.6,4.3-7.2,8.6-10.8,13-2.9,3.4-3.5,4.1-4.1,4.7s-1.3,1.4-4.1,4.8c-4.3,5.1-8.5,10.2-12.8,15.3l-7.6,9.1c-5.8-3.3-12.5-4.4-19.8-3.4A30.43,30.43,0,0,0,975.9,296a30.1,30.1,0,0,0-3.5,23.9,32.1,32.1,0,0,0,13.4,18.7,1.7,1.7,0,0,1,.6.6l.1.2.2.1a31.73,31.73,0,0,0,15.6,4.5h.2c.2,0,.3-.1.6-.1a34,34,0,0,0,16-4.5C1028.4,333.9,1033.6,325.8,1034.6,315.3ZM1086.3,134a16.11,16.11,0,0,1,5-11.7,15.21,15.21,0,0,1,11.2-4.3,15,15,0,0,1,11,4.2,16,16,0,0,1,.3,23.1,15.81,15.81,0,0,1-11.3,4.7h-.1A16.13,16.13,0,0,1,1086.3,134Zm-71.9,189.6a15.81,15.81,0,0,1-11.3,4.7h-.1a16.06,16.06,0,0,1-11.1-27.7,15.06,15.06,0,0,1,10.6-4.3h.7a15,15,0,0,1,11,4.2,16.2,16.2,0,0,1,5.1,11.8A16.64,16.64,0,0,1,1014.4,323.6Z" fill="#fff"/><path d="M953,396.3a31.5,31.5,0,1,1,31.5-31.5A31.5,31.5,0,0,1,953,396.3Zm0-46.7a15.1,15.1,0,1,0,15.1,15.1A15.15,15.15,0,0,0,953,349.6Z" fill="#fff"/></g></g></svg>