<svg id="Layer_1" data-name="Layer 1" xmlns="http://www.w3.org/2000/svg" viewBox="0 0 200 200"><defs><style>.cls-1,.cls-2{fill:none;stroke-linecap:round;stroke-miterlimit:10;stroke-width:7.5px;}.cls-1{stroke:#1c5a86;}.cls-2{stroke:#e2a825;}</style></defs><path class="cls-1" d="M195.74,89.8A54.31,54.31,0,0,0,154,50.14"/><path class="cls-1" d="M140.27,62.27H74.62a43.79,43.79,0,1,0,26.15,78.91,11.27,11.27,0,0,1,13.35,0,43.78,43.78,0,1,0,26.15-78.91Z"/><circle class="cls-1" cx="74.62" cy="106.64" r="30.65"/><path class="cls-2" d="M171.13,105.05l-19-9.52a2,2,0,0,0-1.69,0l-20.16,10.08a1.93,1.93,0,0,1-1.69,0L108.39,95.53a2,2,0,0,0-1.69,0L86.44,105.66a1.88,1.88,0,0,1-1.59,0l-61.4-26.3"/><circle class="cls-1" cx="145.08" cy="106.02" r="26.05"/><circle class="cls-2" cx="14.29" cy="74.96" r="10.03"/></svg>