<svg id="Layer_1" data-name="Layer 1" xmlns="http://www.w3.org/2000/svg" viewBox="0 0 200 200"><defs><style>.cls-1,.cls-2,.cls-3{fill:none;stroke-miterlimit:10;stroke-width:7.5px;}.cls-1{stroke:#e2a725;}.cls-2{stroke:#55556e;}.cls-2,.cls-3{stroke-linecap:round;}.cls-3{stroke:#e2a825;}</style></defs><line class="cls-1" x1="56.86" y1="90.3" x2="56.86" y2="39.87"/><path class="cls-1" d="M82.08,52.47,72.57,62a10.57,10.57,0,0,0-3.1,7.48V90.3"/><path class="cls-2" d="M65,128.12h48a5.9,5.9,0,0,0,4.18-1.73L152.57,91a2.27,2.27,0,0,1,1.6-.66h34a2.85,2.85,0,0,1,2.85,2.84V102a2.26,2.26,0,0,1-.67,1.6l-24.55,24.55a50.43,50.43,0,0,1-50.43,50.43h-56A50.43,50.43,0,0,1,8.94,128.12V92.57a2.27,2.27,0,0,1,2.27-2.27H127.08a2.27,2.27,0,0,1,1.6.66l11.94,12"/><circle class="cls-3" cx="88.44" cy="46.19" r="10.46"/><circle class="cls-3" cx="56.58" cy="31.91" r="10.46"/><circle class="cls-3" cx="31.84" cy="57.76" r="10.46"/><circle class="cls-2" cx="52.77" cy="127.93" r="10.46"/></svg>